<?xml version="1.0" encoding="utf-8"?>
<!-- Generator: Adobe Illustrator 24.3.0, SVG Export Plug-In . SVG Version: 6.00 Build 0)  -->
<svg version="1.1" id="Capa_1" xmlns="http://www.w3.org/2000/svg" xmlns:xlink="http://www.w3.org/1999/xlink" x="0px" y="0px"
	 viewBox="0 0 400 400" style="enable-background:new 0 0 400 400;" xml:space="preserve">
<style type="text/css">
	.st0{fill:#0A9EE8;}
	.st1{fill:#61D2FF;}
</style>
<g>
	<path class="st0" d="M29.78,343.7c9.64-8.68,19.26-17.37,28.91-26.03c33.35-29.91,66.71-59.8,100.06-89.7
		c3.99-3.58,5.18-3.66,9.78-0.9c14.08,8.47,28.23,16.81,42.22,25.42c4.01,2.47,6.99,2.1,10.68-0.75
		c30.65-23.63,61.43-47.09,92.16-70.61c1.03-0.79,1.98-1.7,3.31-2.86c-4.63-6.17-9.13-12.17-14.18-18.89
		c28.15-3.61,55.58-7.13,84.07-10.79c-11.04,26.48-21.67,52.01-32.63,78.29c-5.11-6.57-9.71-12.48-14.64-18.81
		c-5.27,3.96-10.33,7.71-15.33,11.54c-33.48,25.61-66.96,51.21-100.37,76.92c-3.57,2.75-6.62,2.99-10.46,0.64
		c-14.47-8.84-29.16-17.33-43.55-26.3c-4.77-2.97-8.51-3.01-13.43-0.1c-40.84,24.12-81.83,47.98-122.78,71.92
		c-1.1,0.64-2.25,1.21-3.38,1.81C30.08,344.23,29.93,343.96,29.78,343.7z"/>
	<path class="st0" d="M57.88,302.82c-33.51-37.28-51.5-109-21.31-173.71C68.16,61.4,136.15,27.4,199.03,31.94
		c86.3,6.23,133.77,69.31,146.27,110.28c-3.67,0.48-7.25,1.04-10.84,1.4c-8.29,0.82-8.12,0.69-11.81-6.77
		c-23.77-48.12-62.28-76.97-115.28-84.35c-72.72-10.13-143,37.28-161.57,108.29c-11.64,44.51-4.25,86.16,22.16,124.14
		c3.89,5.6,3.93,5.58-1.18,10.21c-2.55,2.32-5.1,4.64-7.66,6.94C58.84,302.33,58.46,302.48,57.88,302.82z"/>
	<path class="st0" d="M217.32,238.26c-0.08-1.86-0.2-3.25-0.2-4.65c-0.01-46.56,0.03-93.11-0.08-139.67
		c-0.01-3.68,0.78-5.1,4.78-5.04c14.58,0.23,29.18,0.2,43.76,0.01c3.6-0.05,4.96,1.03,4.95,4.67c-0.08,33.29,0.03,66.59-0.2,99.88
		c-0.02,2.52-1.56,5.88-3.51,7.42c-15.52,12.21-31.31,24.09-47.04,36.05C219.2,237.38,218.47,237.65,217.32,238.26z"/>
	<path class="st1" d="M80.02,328.21c6.56-3.75,11.83-7.07,17.41-9.74c1.39-0.66,4.14,0.32,5.68,1.38
		c15.96,11.08,33.18,19.48,52.22,23.49c51.12,10.77,96.21-1.5,134.61-36.88c22.15-20.4,36.15-45.78,42.75-75.23
		c0.56-2.5,1.92-4.82,3.26-8.08c5.01,6.05,9.6,11.32,13.78,16.9c0.89,1.18,0.73,3.66,0.24,5.29
		c-16.37,53.95-49.94,92.02-103.41,111.58c-23.57,8.62-47.83,12.67-72.97,10.48c-30.38-2.64-57.44-14-82.25-31.27
		c-3.04-2.12-5.95-4.43-8.94-6.64C81.98,329.19,81.47,328.99,80.02,328.21z"/>
	<path class="st0" d="M145.8,222.59c-0.13-1.99-0.27-3.13-0.27-4.27c-0.01-25.19,0.05-50.38-0.08-75.56
		c-0.02-3.52,0.81-4.82,4.59-4.76c14.71,0.21,29.43,0.2,44.14,0.01c3.76-0.05,4.81,1.31,4.8,4.82c-0.08,27.57-0.04,55.15-0.06,82.72
		c0,1.27-0.21,2.54-0.38,4.5c-1.67-0.84-2.83-1.32-3.89-1.95c-10.04-5.92-20.11-11.8-30.07-17.85c-2.09-1.27-3.49-1.12-5.23,0.46
		C155.09,214.58,150.7,218.31,145.8,222.59z"/>
	<path class="st0" d="M73.93,286.8c0-2.47,0-3.76,0-5.05c0-29.69,0.07-59.39-0.08-89.08c-0.02-3.89,0.83-5.29,5.02-5.21
		c14.57,0.26,29.16,0.23,43.74,0.01c3.83-0.06,4.83,1.43,4.81,4.84c-0.08,13.39-0.07,26.78-0.01,40.17c0.02,4.8-1.66,8.41-5.41,11.7
		c-15.05,13.17-29.83,26.66-44.72,40.02C76.51,284.87,75.66,285.46,73.93,286.8z"/>
</g>
</svg>
